<svg width="284" height="249" viewBox="0 0 284 249" fill="none" xmlns="http://www.w3.org/2000/svg">
<path d="M94.4017 248.485C146.099 248.485 188.008 206.576 188.008 154.879C188.008 103.182 146.099 61.273 94.4017 61.273C42.7047 61.273 0.795914 103.182 0.795914 154.879C0.795914 206.576 42.7047 248.485 94.4017 248.485Z" fill="#0F4A89"/>
<path d="M283.878 136.793L255.884 108.673L187.945 40.3875C164.807 17.3542 134.245 3.28005 101.701 0.670794C69.1578 -1.93846 36.7443 7.08658 10.232 26.139L38.32 54.1956L106.26 122.324C129.361 145.372 159.891 159.475 192.416 162.125C224.941 164.774 257.351 155.798 283.878 136.793Z" fill="#49B594"/>
</svg>
