<svg xmlns="http://www.w3.org/2000/svg" viewBox="0 0 120.25 151.07"><defs><style>.cls-1{fill:#ca9e67;}.cls-2{fill:#c99e67;}.cls-3{fill:#00b2d9;stroke:#00b2d9;}.cls-3,.cls-6{stroke-miterlimit:10;}.cls-4{fill:#c89e67;}.cls-5{fill:#a6222b;}.cls-6{fill:#e83e4a;stroke:#e83e4a;}</style></defs><g id="Layer_2" data-name="Layer 2"><g id="Layer_1-2" data-name="Layer 1"><circle class="cls-1" cx="73.62" cy="17.83" r="17.83"/><path class="cls-2" d="M79.64,59.11l14,14.29,17.22-11.18s4.09-3.86,7.69-1.28.28,7.23.28,7.23S94,82.55,90.85,83.07,77.07,72.45,77.07,72.45l.49-15Z"/><path class="cls-2" d="M51.16,52.27,38,41.21l-13.82,11S21,55.88,17.64,54s-.84-6.18-.84-6.18S36.87,33.4,39.54,32.68s12.7,7.94,12.7,7.94l.84,12.91Z"/><path class="cls-3" d="M44.38,38.41H80a0,0,0,0,1,0,0V97.75A17.83,17.83,0,0,1,62.2,115.57h0A17.83,17.83,0,0,1,44.38,97.75V38.41a0,0,0,0,1,0,0Z" transform="translate(16.37 -10.74) rotate(11.35)"/><circle class="cls-4" cx="85.58" cy="119.64" r="10.23"/><rect class="cls-4" x="70.01" y="109.57" width="16.75" height="44.65" rx="8.38" transform="translate(101.34 -19.81) rotate(39.33)"/><rect class="cls-5" x="33.15" y="89.59" width="17.91" height="41.52" transform="translate(46.42 -7.68) rotate(22.98)"/><path class="cls-6" d="M41.25,87.13s-4.76,20,8.72,26l36.36,17.77L91.44,110Z"/><path class="cls-4" d="M25.13,124.07a44,44,0,0,0-19.61,0S0,123.44,0,130.72s6.36,7,6.36,7c29-.26,35.55-2.7,35.75-5C42.38,129.73,31.83,125.62,25.13,124.07Z"/></g></g></svg>