<svg width="1440" height="897" viewBox="0 0 1440 897" fill="none" xmlns="http://www.w3.org/2000/svg">
<path d="M184 12C71.3207 -20.4337 -215.236 20.5001 -134 101.736L-18 891H1510V152.74L1449.71 176.935C1347.81 176.935 1214.5 33 997.821 101.736C841.124 151.443 739.408 105.845 621.5 123.5C503.592 141.155 324.849 52.5422 184 12Z" fill="url(#paint0_linear)"/>
<path d="M9.9574 141.215C-126.246 108.816 -278.099 235.279 -337 302.561V1091H1510V353.513L1437.13 377.682C1313.95 377.682 1032.26 362.658 890.894 302.561C714.191 227.441 561.349 360.045 418.825 377.682C276.302 395.319 180.212 181.715 9.9574 141.215Z" fill="url(#paint1_linear)"/>
<path d="M49.0237 579.215C-87.9908 546.816 -240.748 673.279 -300 740.561V1529H1558V791.513L1484.69 815.682C1360.78 815.682 1077.41 800.658 935.207 740.561C757.451 665.441 603.699 798.045 460.327 815.682C316.955 833.319 220.292 619.715 49.0237 579.215Z" fill="url(#paint2_linear)"/>
<defs>
<linearGradient id="paint0_linear" x1="745.999" y1="-65" x2="746.862" y2="1654.98" gradientUnits="userSpaceOnUse">
<stop stop-color="#F79400" stop-opacity="0.66"/>
<stop offset="0.1875" stop-color="#E43A3A" stop-opacity="0.6"/>
<stop offset="0.71875" stop-color="#2A3EF5" stop-opacity="0"/>
</linearGradient>
<linearGradient id="paint1_linear" x1="586.5" y1="136" x2="587.212" y2="1854.18" gradientUnits="userSpaceOnUse">
<stop stop-color="#F43DB6" stop-opacity="0.5"/>
<stop offset="0.432292" stop-color="#F31A1A" stop-opacity="0.34"/>
<stop offset="1" stop-color="#221EE9" stop-opacity="0.56"/>
</linearGradient>
<linearGradient id="paint2_linear" x1="629" y1="574" x2="629.707" y2="2292.18" gradientUnits="userSpaceOnUse">
<stop stop-color="#4C0DFF" stop-opacity="0.59"/>
<stop offset="0.0001" stop-color="#4A0BFF" stop-opacity="0.56"/>
<stop offset="0.283497" stop-color="#D63333"/>
</linearGradient>
</defs>
</svg>
