<svg width="61" height="61" viewBox="0 0 61 61" fill="none" xmlns="http://www.w3.org/2000/svg">
<path fill-rule="evenodd" clip-rule="evenodd" d="M5.02362 61H55.9764C58.7498 61 61 58.7505 61 55.9764V5.02363C61 2.2502 58.7505 0 55.9764 0H5.02362C2.25019 0 0 2.24952 0 5.02363V55.9764C0 58.7498 2.24951 61 5.02362 61ZM23.3234 23.3241H31.8457V27.6137C32.9884 25.3229 36.3163 22.8754 40.7177 22.8754C49.1532 22.8754 52.0297 26.6879 52.0297 35.7429V52.0297H43.0594V37.6481C43.0594 32.8827 42.1282 30.276 38.6498 30.276C33.9475 30.276 32.2951 33.8499 32.2951 37.6481V52.0297H23.3248V23.3241H23.3234ZM8.97096 52.0297H17.9413V23.3241H8.97096V52.0297ZM18.9281 13.4565C18.9281 16.478 16.4773 18.9288 13.4558 18.9288C10.4343 18.9288 7.98345 16.478 7.98345 13.4565C7.98345 10.4336 10.4343 7.98414 13.4558 7.98414C16.4773 7.98414 18.9281 10.4329 18.9281 13.4565Z" fill="black"/>
</svg>
