<svg width="61" height="61" viewBox="0 0 61 61" fill="none" xmlns="http://www.w3.org/2000/svg">
<path d="M30.4998 0C13.6556 0 0 13.6556 0 30.5002C0 47.3455 13.6556 61 30.4998 61C47.3459 61 61 47.3455 61 30.5002C61 13.6566 47.3459 0.00145686 30.4995 0.00145686L30.4998 0ZM44.4868 43.99C43.9405 44.886 42.7678 45.1701 41.8718 44.6201C34.7108 40.2459 25.6959 39.2552 15.0793 41.6809C14.0562 41.914 13.0364 41.273 12.8033 40.2495C12.5692 39.2261 13.2076 38.2063 14.2332 37.9732C25.8514 35.3188 35.8172 36.4617 43.8568 41.3749C44.7527 41.9249 45.0368 43.094 44.4868 43.99ZM48.22 35.6852C47.5316 36.804 46.0675 37.1573 44.9494 36.469C36.7511 31.4297 24.254 29.9702 14.557 32.9138C13.2994 33.2937 11.9711 32.585 11.5894 31.3295C11.2107 30.0719 11.9198 28.7461 13.1752 28.3637C24.2518 25.0027 38.0222 26.6307 47.4369 32.4163C48.555 33.1047 48.9083 34.5685 48.22 35.6852ZM48.5405 27.0372C38.7105 21.1985 22.4924 20.6616 13.1071 23.5101C11.6 23.9672 10.0062 23.1164 9.54952 21.6093C9.0928 20.1014 9.94286 18.5087 11.451 18.0505C22.2247 14.7799 40.1346 15.4118 51.4519 22.1305C52.8104 22.935 53.2548 24.6858 52.4499 26.0396C51.6486 27.3952 49.8931 27.8421 48.5419 27.0372H48.5405Z" fill="black"/>
</svg>
