<svg width="35" height="53" viewBox="0 0 35 53" fill="none" xmlns="http://www.w3.org/2000/svg">
<path d="M8.75 52.5C13.58 52.5 17.5 48.58 17.5 43.75V35H8.75C3.92 35 0 38.92 0 43.75C0 48.58 3.92 52.5 8.75 52.5Z" fill="#5BC686"/>
<path d="M0 26.25C0 21.42 3.92 17.5 8.75 17.5H17.5V35H8.75C3.92 35 0 31.08 0 26.25Z" fill="#935AEE"/>
<path d="M0 8.75C0 3.92 3.92 0 8.75 0H17.5V17.5H8.75C3.92 17.5 0 13.58 0 8.75Z" fill="#D95730"/>
<path d="M17.5 0H26.25C31.08 0 35 3.92 35 8.75C35 13.58 31.08 17.5 26.25 17.5H17.5V0Z" fill="#E77566"/>
<path d="M35 26.25C35 31.08 31.08 35 26.25 35C21.42 35 17.5 31.08 17.5 26.25C17.5 21.42 21.42 17.5 26.25 17.5C31.08 17.5 35 21.42 35 26.25Z" fill="#55B3EF"/>
</svg>
