<svg width="98" height="86" viewBox="0 0 98 86" fill="none" xmlns="http://www.w3.org/2000/svg">
<path d="M32.1309 85.2154C49.8763 85.2154 64.2618 70.8299 64.2618 53.0845C64.2618 35.3391 49.8763 20.9536 32.1309 20.9536C14.3855 20.9536 0 35.3391 0 53.0845C0 70.8299 14.3855 85.2154 32.1309 85.2154Z" fill="#0F4A89"/>
<path d="M97.17 46.8763L87.561 37.2241L64.2402 13.7845C56.2979 5.87815 45.8074 1.04708 34.6366 0.151438C23.4657 -0.744207 12.3396 2.3537 3.23901 8.8936L12.8804 18.5242L36.2012 41.9098C44.131 49.8212 54.6106 54.6623 65.775 55.5718C76.9394 56.4812 88.0644 53.3999 97.17 46.8763Z" fill="#49B594"/>
</svg>
