<svg width="1142" height="740" viewBox="0 0 1142 740" fill="none" xmlns="http://www.w3.org/2000/svg">
<path fill-rule="evenodd" clip-rule="evenodd" d="M1036.63 316.191C1047.61 357.641 1070.45 393.995 1078.54 436.104C1088.88 489.893 1122.87 553.524 1090.77 597.904C1058.27 642.83 984.953 623.441 931.742 639.034C890.482 651.125 853.653 673.752 811.094 679.86C766.866 686.207 722.55 684.444 678.808 675.331C630.245 665.213 578.827 656.019 541.247 623.638C502.779 590.492 466.097 543.589 466.993 492.819C467.93 439.686 531.417 407.744 545.958 356.63C558.062 314.084 519.896 263.34 543.006 225.622C565.86 188.322 618.907 184.782 660.162 170.237C696.086 157.571 734.222 157.841 770.259 145.499C818.783 128.882 858.957 76.476 909.563 84.8277C957.414 92.7247 988.798 142.909 1012.15 185.418C1033.77 224.784 1025.13 272.776 1036.63 316.191Z" fill="#FFA928"/>
<path fill-rule="evenodd" clip-rule="evenodd" d="M136.826 107.724C166.142 80.1257 184.196 30.7693 224.424 28.9144C265.113 27.0382 289.259 73.3426 320.707 99.2455C344.175 118.575 367.681 135.849 384.774 160.992C404.229 189.608 424.066 219.073 425.667 253.633C427.498 293.179 423.237 338.202 394.229 365.127C365.4 391.887 320.356 382.764 281.316 387.621C243.917 392.274 205.211 409.014 171.141 392.882C136.765 376.605 124.231 336.255 104.351 303.828C82.385 267.999 42.2944 235.367 49.1587 193.917C56.0231 152.466 106.24 136.52 136.826 107.724Z" fill="#49B594"/>
</svg>
