<svg width="1407" height="777" viewBox="0 0 1407 777" fill="none" xmlns="http://www.w3.org/2000/svg">
<path fill-rule="evenodd" clip-rule="evenodd" d="M1187.3 203.894C1215.68 236.032 1252.39 258.299 1278.49 292.319C1311.83 335.775 1370.74 377.427 1361.92 431.487C1353 486.213 1278.77 501.731 1238.18 539.514C1206.71 568.81 1183.93 605.541 1148.62 630.071C1111.92 655.563 1071.51 673.844 1028.32 685.296C980.375 698.011 930.288 712.831 882.183 700.721C832.941 688.325 779.131 662.83 757.183 617.041C734.214 569.12 776.659 512.117 766.756 459.906C758.512 416.446 701.655 388.183 705.414 344.109C709.132 300.522 754.97 273.588 785.335 242.099C811.776 214.679 845.99 197.832 872.677 170.652C908.611 134.054 921.045 69.2024 970.028 53.9934C1016.35 39.6123 1066.89 70.4146 1106.81 97.9565C1143.78 123.461 1157.56 170.234 1187.3 203.894Z" fill="#FFA928"/>
<path fill-rule="evenodd" clip-rule="evenodd" d="M135.826 169.724C165.142 142.126 183.196 92.7693 223.424 90.9144C264.113 89.0382 288.259 135.343 319.707 161.245C343.175 180.575 366.681 197.849 383.774 222.992C403.229 251.608 423.066 281.073 424.667 315.633C426.498 355.179 422.237 400.202 393.229 427.127C364.4 453.887 319.356 444.764 280.316 449.621C242.917 454.274 204.211 471.014 170.141 454.882C135.765 438.605 123.231 398.255 103.351 365.828C81.385 329.999 41.2944 297.367 48.1587 255.917C55.0231 214.466 105.24 198.52 135.826 169.724Z" fill="#49B594"/>
</svg>
