<svg width="61" height="61" viewBox="0 0 61 61" fill="none" xmlns="http://www.w3.org/2000/svg">
<path d="M30.5029 0C22.2195 0 21.1799 0.0362193 17.9266 0.184271C14.6796 0.332959 12.4632 0.847011 10.5239 1.60125C8.51785 2.38027 6.81619 3.42235 5.12088 5.11828C3.4243 6.81357 2.3822 8.51522 1.60063 10.5206C0.844477 12.4605 0.329784 14.6775 0.183637 17.9232C0.0381251 21.1765 0 22.2167 0 30.5C0 38.7833 0.0368551 39.8197 0.184273 43.073C0.333598 46.32 0.847655 48.5363 1.60127 50.4756C2.38093 52.4816 3.42303 54.1833 5.11897 55.8785C6.81364 57.5751 8.51531 58.6197 10.5201 59.3988C12.4607 60.153 14.6776 60.667 17.924 60.8157C21.1774 60.9638 22.2163 61 30.499 61C38.7831 61 39.8194 60.9638 43.0728 60.8157C46.3198 60.667 48.5387 60.153 50.4793 59.3988C52.4847 58.6197 54.1838 57.5751 55.8785 55.8785C57.5751 54.1833 58.6172 52.4816 59.3987 50.4762C60.1485 48.5363 60.6632 46.3193 60.8157 43.0736C60.9619 39.8203 61 38.7833 61 30.5C61 22.2167 60.9619 21.1772 60.8157 17.9238C60.6632 14.6769 60.1485 12.4605 59.3987 10.5212C58.6172 8.51522 57.5751 6.81357 55.8785 5.11828C54.1819 3.42172 52.4853 2.37964 50.4774 1.60125C48.533 0.847011 46.3154 0.332959 43.0684 0.184271C39.815 0.0362193 38.7792 0 30.4933 0H30.5029ZM27.7667 5.49635C28.5788 5.49508 29.4849 5.49635 30.5029 5.49635C38.6464 5.49635 39.6117 5.52558 42.8275 5.67173C45.8013 5.80771 47.4153 6.3046 48.4904 6.72207C49.9138 7.27489 50.9285 7.93572 51.9954 9.00322C53.0629 10.0707 53.7238 11.0874 54.2779 12.5107C54.6953 13.5846 55.1929 15.1985 55.3282 18.1723C55.4744 21.3875 55.5061 22.3533 55.5061 30.493C55.5061 38.6327 55.4744 39.5985 55.3282 42.8137C55.1922 45.7875 54.6953 47.4015 54.2779 48.4753C53.725 49.8986 53.0629 50.9121 51.9954 51.979C50.9279 53.0465 49.9144 53.7073 48.4904 54.2601C47.4166 54.6795 45.8013 55.1751 42.8275 55.3111C39.6123 55.4573 38.6464 55.489 30.5029 55.489C22.3586 55.489 21.3934 55.4573 18.1782 55.3111C15.2044 55.1739 13.5904 54.677 12.5147 54.2595C11.0913 53.7067 10.0746 53.0459 9.00712 51.9784C7.93961 50.9109 7.27877 49.8967 6.72468 48.4728C6.30721 47.3989 5.80968 45.7849 5.67433 42.8112C5.52818 39.596 5.49895 38.6302 5.49895 30.4854C5.49895 22.3406 5.52818 21.3799 5.67433 18.1647C5.81031 15.1909 6.30721 13.5769 6.72468 12.5018C7.2775 11.0785 7.93961 10.0618 9.00712 8.99432C10.0746 7.92682 11.0913 7.26599 12.5147 6.71191C13.5898 6.29253 15.2044 5.79691 18.1782 5.66029C20.9918 5.53321 22.0822 5.49508 27.7667 5.48873V5.49635ZM46.7837 10.5606C44.763 10.5606 43.1236 12.1981 43.1236 14.2194C43.1236 16.24 44.763 17.8794 46.7837 17.8794C48.8043 17.8794 50.4437 16.24 50.4437 14.2194C50.4437 12.1987 48.8043 10.5594 46.7837 10.5594V10.5606ZM30.5029 14.837C21.8528 14.837 14.8397 21.8501 14.8397 30.5C14.8397 39.1499 21.8528 46.1598 30.5029 46.1598C39.1529 46.1598 46.1635 39.1499 46.1635 30.5C46.1635 21.8501 39.1522 14.837 30.5022 14.837H30.5029ZM30.5029 20.3333C36.1175 20.3333 40.6696 24.8848 40.6696 30.5C40.6696 36.1145 36.1175 40.6667 30.5029 40.6667C24.8876 40.6667 20.3361 36.1145 20.3361 30.5C20.3361 24.8848 24.8876 20.3333 30.5029 20.3333V20.3333Z" fill="#E5E5E5"/>
</svg>
